<svg version="1.1" xmlns="http://www.w3.org/2000/svg" width="273" height="256" viewBox="0 0 273 256">
<path d="M254.429 133c0-4-4.429-5-7.571-5h-155.429c-7.572 0-17.572 4.714-22.428 10.572l-42 51.857c-1.286 1.714-2.572 3.571-2.572 5.714 0 4 4.428 5 7.572 5h155.429c7.572 0 17.572-4.714 22.428-10.714l42-51.857c1.286-1.571 2.571-3.429 2.571-5.572zM91.428 109.714h109.714v-22.857c0-7.572-6.143-13.714-13.714-13.714h-82.286c-7.572 0-13.714-6.143-13.714-13.714v-9.143c0-7.572-6.143-13.714-13.714-13.714h-45.714c-7.572 0-13.714 6.143-13.714 13.714v121.857l36.572-45c8.286-10.143 23.572-17.428 36.572-17.428zM272.714 133c0 6.286-2.714 12.286-6.572 17.143l-42.143 51.857c-8.143 10-23.714 17.428-36.571 17.428h-155.429c-17.572 0-32-14.428-32-32v-137.143c0-17.572 14.428-32 32-32h45.714c17.572 0 32 14.428 32 32v4.572h77.714c17.572 0 32 14.428 32 32v22.857h27.428c9.714 0 19.428 4.428 23.714 13.572 1.428 3 2.143 6.286 2.143 9.714z"></path>
</svg>
