<svg version="1.1" xmlns="http://www.w3.org/2000/svg" width="256" height="256" viewBox="0 0 256 256">
<path d="M155.429 118.857c0-5-4.143-9.143-9.143-9.143h-36.572c-5 0-9.143 4.143-9.143 9.143s4.143 9.143 9.143 9.143h36.571c5 0 9.143-4.143 9.143-9.143zM237.714 91.428v137.143c0 5-4.143 9.143-9.143 9.143h-201.143c-5 0-9.143-4.143-9.143-9.143v-137.143c0-5 4.143-9.143 9.143-9.143h201.143c5 0 9.143 4.143 9.143 9.143zM246.857 27.428v36.572c0 5-4.143 9.143-9.143 9.143h-219.429c-5 0-9.143-4.143-9.143-9.143v-36.572c0-5 4.143-9.143 9.143-9.143h219.429c5 0 9.143 4.143 9.143 9.143z"></path>
</svg>
