<svg version="1.1" xmlns="http://www.w3.org/2000/svg" width="274" height="256" viewBox="0 0 274 256">
<path d="M256 178.286v-137.143c0-2.428-2.143-4.572-4.572-4.572h-228.571c-2.428 0-4.572 2.143-4.572 4.572v137.143c0 2.429 2.143 4.572 4.572 4.572h228.571c2.429 0 4.572-2.143 4.572-4.572zM274.286 41.143v137.143c0 12.572-10.286 22.857-22.857 22.857h-105.143v18.286h50.286c2.571 0 4.572 2 4.572 4.571v9.143c0 2.571-2 4.571-4.572 4.571h-118.857c-2.572 0-4.572-2-4.572-4.572v-9.143c0-2.571 2-4.571 4.572-4.571h50.286v-18.286h-105.143c-12.572 0-22.857-10.286-22.857-22.857v-137.143c0-12.572 10.286-22.857 22.857-22.857h228.571c12.571 0 22.857 10.286 22.857 22.857z"></path>
</svg>
